REM DIRINDEX 1\2,1\4,1\5,1\6,1\7,1\3\8,1\3\9,1\3\10
REM DIRNAME cjc113,folder01,folder02,folder03,folder04,folder05,folder06,folder07,folder08,folder09
TITLE ""
FILE "DB4500_5th_5C_21.mp3" MP3
  TRACK 01 AUDIO
    TITLE "0:"
    INDEX 01 00:00:00
  TRACK 02 AUDIO
    TITLE "8:cjc113_4124"
    INDEX 01 00:00:01
  TRACK 03 AUDIO
    TITLE "0:"
    INDEX 01 00:01:32
  TRACK 04 AUDIO
    TITLE "9:cjc113_4125"
    INDEX 01 00:01:48
  TRACK 05 AUDIO
    TITLE "0:"
    INDEX 01 00:04:05
  TRACK 06 AUDIO
    TITLE "10:cjc113_4126"
    INDEX 01 00:04:23
  TRACK 07 AUDIO
    TITLE "0:"
    INDEX 01 00:07:72
  TRACK 08 AUDIO
    TITLE "8:cjc113_4127"
    INDEX 01 00:08:40
  TRACK 09 AUDIO
    TITLE "0:"
    INDEX 01 00:09:65
  TRACK 10 AUDIO
    TITLE "9:cjc113_4128"
    INDEX 01 00:10:10
  TRACK 11 AUDIO
    TITLE "0:"
    INDEX 01 00:11:44
  TRACK 12 AUDIO
    TITLE "10:cjc113_4129"
    INDEX 01 00:11:58
  TRACK 13 AUDIO
    TITLE "0:"
    INDEX 01 00:14:60
  TRACK 14 AUDIO
    TITLE "8:cjc113_4130"
    INDEX 01 00:15:21
  TRACK 15 AUDIO
    TITLE "0:"
    INDEX 01 00:16:59
  TRACK 16 AUDIO
    TITLE "9:cjc113_4131"
    INDEX 01 00:17:00
  TRACK 17 AUDIO
    TITLE "0:"
    INDEX 01 00:18:21
  TRACK 18 AUDIO
    TITLE "10:cjc113_4132"
    INDEX 01 00:18:39
  TRACK 19 AUDIO
    TITLE "0:"
    INDEX 01 00:23:42
  TRACK 20 AUDIO
    TITLE "8:cjc113_4133"
    INDEX 01 00:24:10
  TRACK 21 AUDIO
    TITLE "0:"
    INDEX 01 00:25:27
  TRACK 22 AUDIO
    TITLE "9:cjc113_4134"
    INDEX 01 00:25:45
  TRACK 23 AUDIO
    TITLE "0:"
    INDEX 01 00:26:54
  TRACK 24 AUDIO
    TITLE "10:cjc113_4135"
    INDEX 01 00:26:73
  TRACK 25 AUDIO
    TITLE "0:"
    INDEX 01 00:29:66
  TRACK 26 AUDIO
    TITLE "8:cjc113_4136"
    INDEX 01 00:30:32
  TRACK 27 AUDIO
    TITLE "0:"
    INDEX 01 00:31:47
  TRACK 28 AUDIO
    TITLE "9:cjc113_4137"
    INDEX 01 00:31:69
  TRACK 29 AUDIO
    TITLE "0:"
    INDEX 01 00:33:11
  TRACK 30 AUDIO
    TITLE "10:cjc113_4138"
    INDEX 01 00:33:30
  TRACK 31 AUDIO
    TITLE "0:"
    INDEX 01 00:36:27
  TRACK 32 AUDIO
    TITLE "8:cjc113_4139"
    INDEX 01 00:36:72
  TRACK 33 AUDIO
    TITLE "0:"
    INDEX 01 00:38:08
  TRACK 34 AUDIO
    TITLE "9:cjc113_4140"
    INDEX 01 00:38:26
  TRACK 35 AUDIO
    TITLE "0:"
    INDEX 01 00:39:58
  TRACK 36 AUDIO
    TITLE "10:cjc113_4141"
    INDEX 01 00:39:72
  TRACK 37 AUDIO
    TITLE "0:"
    INDEX 01 00:43:27
  TRACK 38 AUDIO
    TITLE "8:cjc113_4142"
    INDEX 01 00:43:68
  TRACK 39 AUDIO
    TITLE "0:"
    INDEX 01 00:45:14
  TRACK 40 AUDIO
    TITLE "9:cjc113_4143"
    INDEX 01 00:45:32
  TRACK 41 AUDIO
    TITLE "0:"
    INDEX 01 00:46:74
  TRACK 42 AUDIO
    TITLE "10:cjc113_4144"
    INDEX 01 00:47:17
  TRACK 43 AUDIO
    TITLE "0:"
    INDEX 01 00:50:52
  TRACK 44 AUDIO
    TITLE "8:cjc113_4145"
    INDEX 01 00:51:18
  TRACK 45 AUDIO
    TITLE "0:"
    INDEX 01 00:52:37
  TRACK 46 AUDIO
    TITLE "9:cjc113_4146"
    INDEX 01 00:52:55
  TRACK 47 AUDIO
    TITLE "0:"
    INDEX 01 00:54:09
  TRACK 48 AUDIO
    TITLE "10:cjc113_4147"
    INDEX 01 00:54:29
  TRACK 49 AUDIO
    TITLE "0:"
    INDEX 01 00:57:45
  TRACK 50 AUDIO
    TITLE "8:cjc113_4148"
    INDEX 01 00:58:11
  TRACK 51 AUDIO
    TITLE "0:"
    INDEX 01 00:59:30
  TRACK 52 AUDIO
    TITLE "9:cjc113_4149"
    INDEX 01 00:59:47
  TRACK 53 AUDIO
    TITLE "0:"
    INDEX 01 01:00:74
  TRACK 54 AUDIO
    TITLE "10:cjc113_4150"
    INDEX 01 01:01:15
  TRACK 55 AUDIO
    TITLE "0:"
    INDEX 01 01:05:11
  TRACK 56 AUDIO
    TITLE "8:cjc113_4151"
    INDEX 01 01:05:52
  TRACK 57 AUDIO
    TITLE "0:"
    INDEX 01 01:06:57
  TRACK 58 AUDIO
    TITLE "9:cjc113_4152"
    INDEX 01 01:06:65
  TRACK 59 AUDIO
    TITLE "0:"
    INDEX 01 01:08:50
  TRACK 60 AUDIO
    TITLE "10:cjc113_4153"
    INDEX 01 01:08:60
  TRACK 61 AUDIO
    TITLE "0:"
    INDEX 01 01:11:62
  TRACK 62 AUDIO
    TITLE "8:cjc113_4154"
    INDEX 01 01:12:19
  TRACK 63 AUDIO
    TITLE "0:"
    INDEX 01 01:13:24
  TRACK 64 AUDIO
    TITLE "9:cjc113_4155"
    INDEX 01 01:13:32
  TRACK 65 AUDIO
    TITLE "0:"
    INDEX 01 01:14:51
  TRACK 66 AUDIO
    TITLE "10:cjc113_4156"
    INDEX 01 01:14:59
  TRACK 67 AUDIO
    TITLE "0:"
    INDEX 01 01:17:65
  TRACK 68 AUDIO
    TITLE "10:cjc113_4157"
    INDEX 01 01:18:21
  TRACK 69 AUDIO
    TITLE "0:"
    INDEX 01 01:21:21
  TRACK 70 AUDIO
    TITLE "8:cjc113_4158"
    INDEX 01 01:21:49
  TRACK 71 AUDIO
    TITLE "0:"
    INDEX 01 01:22:60
  TRACK 72 AUDIO
    TITLE "9:cjc113_4159"
    INDEX 01 01:22:68
  TRACK 73 AUDIO
    TITLE "0:"
    INDEX 01 01:24:04
  TRACK 74 AUDIO
    TITLE "10:cjc113_4160"
    INDEX 01 01:24:10
  TRACK 75 AUDIO
    TITLE "0:"
    INDEX 01 01:27:55
  TRACK 76 AUDIO
    TITLE "8:cjc113_4161"
    INDEX 01 01:28:10
  TRACK 77 AUDIO
    TITLE "0:"
    INDEX 01 01:29:07
  TRACK 78 AUDIO
    TITLE "9:cjc113_4162"
    INDEX 01 01:29:17
  TRACK 79 AUDIO
    TITLE "0:"
    INDEX 01 01:30:32
  TRACK 80 AUDIO
    TITLE "10:cjc113_4163"
    INDEX 01 01:30:40
  TRACK 81 AUDIO
    TITLE "0:"
    INDEX 01 01:33:66
  TRACK 82 AUDIO
    TITLE "8:cjc113_4164"
    INDEX 01 01:34:36
  TRACK 83 AUDIO
    TITLE "0:"
    INDEX 01 01:35:45
  TRACK 84 AUDIO
    TITLE "9:cjc113_4165"
    INDEX 01 01:35:51
  TRACK 85 AUDIO
    TITLE "0:"
    INDEX 01 01:36:66
  TRACK 86 AUDIO
    TITLE "10:cjc113_4166"
    INDEX 01 01:36:74
  TRACK 87 AUDIO
    TITLE "0:"
    INDEX 01 01:39:57
